# xmcd
#
# Track frame offsets: 
#        150
#        17921
#        28971
#        45304
#        52723
#        69092
#        78115
#        91174
#        109585
#        130582
#        141841
#        152506
#
# Disc length: 2234 seconds
#
# Revision: 0
# Processed by: cddbd v1.5.2PL0 Copyright (c) Steve Scherf et al.
# Submitted via: ExactAudioCopyFreeDBPlugin 1.0
#
DISCID=8208b80c
DTITLE=Mathis Piano Man - Mathis Piano Man
DYEAR=1900
DGENRE=
TTITLE0=Erlinda
TTITLE1=Joyful Choice
TTITLE2=New World
TTITLE3=Peu Importe
TTITLE4=Remember Elizabeth
TTITLE5=Sailing Escape
TTITLE6=Shanahan Park
TTITLE7=Sunshine above the coluds
TTITLE8=Voices Choir
TTITLE9=Without the Monkey
TTITLE10=Back in the day
TTITLE11=Children dance
EXTD=
EXTT0=
EXTT1=
EXTT2=
EXTT3=
EXTT4=
EXTT5=
EXTT6=
EXTT7=
EXTT8=
EXTT9=
EXTT10=
EXTT11=
PLAYORDER=
